REM GENRE "Rock / Art Rock / Pop Rock"
REM DATE 1979
REM DISCID 790ADA0A
REM COMMENT "ExactAudioCopy v1.0b4"
PERFORMER "Supertramp"
TITLE "Breakfast In America PT-SHM"
FILE "Supertramp - Breakfast In America PT-SHM.flac" WAVE
  TRACK 01 AUDIO
    TITLE "Gone Hollywood"
    PERFORMER "Supertramp"
    INDEX 01 00:00:00
  TRACK 02 AUDIO
    TITLE "The Logical Song"
    PERFORMER "Supertramp"
    ACK 02 AUDIO
    TITLE "The Logical Song"
    PERFORMER "Supertramp"
    INDEX 01 05:18:47
  TRACK 03 AUDIO
    TITLE "Goodbye Stranger"
    PERFORMER "Supertramp"
    INDEX 00 09:27:43
    INDEX 01 09:29:65
  TRACK 04 AUDIO
    TITLE "Breakfast In America"
    PERFORMER "Supertramp"
    INDEX 00 15:18:25
    INDEX 01 15:20:17
  TRACK 05 AUDIOhild Of Vision"
    PERFORMER "Supertram﻾p"
    INDEX 01 38:50:ΐ30
